<?xml version="1.0" standalone="no"?>
<!DOCTYPE svg PUBLIC "-//W3C//DTD SVG 20010904//EN"
 "http://www.w3.org/TR/2001/REC-SVG-20010904/DTD/svg10.dtd">
<svg version="1.0" xmlns="http://www.w3.org/2000/svg"
 width="164.000000pt" height="56.000000pt" viewBox="0 0 164.000000 56.000000"
 preserveAspectRatio="xMidYMid meet">

<g transform="translate(0.000000,56.000000) scale(0.100000,-0.100000)"
fill="#000000" stroke="none">
<path d="M165 505 c-77 -30 -146 -63 -152 -72 -14 -18 -19 -266 -7 -297 10
-25 38 -19 189 38 l140 53 9 138 c9 141 3 188 -24 192 -8 1 -78 -22 -155 -52z"/>
<path d="M1110 260 c0 -91 3 -110 15 -110 12 0 15 19 15 110 0 91 -3 110 -15
110 -12 0 -15 -19 -15 -110z"/>
<path d="M1205 361 c-7 -12 12 -24 25 -16 11 7 4 25 -10 25 -5 0 -11 -4 -15
-9z"/>
<path d="M1490 260 c0 -91 3 -110 15 -110 9 0 15 9 15 24 0 40 21 43 51 7 17
-20 34 -31 45 -29 16 3 13 9 -18 43 l-37 40 37 38 c30 30 33 37 17 37 -11 0
-36 -17 -57 -37 l-38 -37 0 67 c0 53 -3 67 -15 67 -12 0 -15 -19 -15 -110z"/>
<path d="M520 255 c0 -87 3 -105 15 -105 11 0 15 11 15 39 0 39 0 40 42 43 70
5 98 67 52 113 -10 10 -35 15 -70 15 l-54 0 0 -105z m105 40 c0 -27 -3 -30
-37 -33 -38 -3 -38 -3 -38 33 0 36 0 36 38 33 34 -3 37 -6 37 -33z"/>
<path d="M721 284 c-27 -35 -27 -76 2 -110 17 -19 32 -26 53 -25 16 1 41 2 57
2 l27 0 0 79 c0 64 -3 80 -15 80 -8 0 -15 -5 -15 -12 0 -9 -3 -9 -12 0 -22 22
-75 14 -97 -14z m97 -16 c21 -21 14 -66 -12 -83 -29 -19 -54 -10 -67 23 -19
49 43 96 79 60z"/>
<path d="M900 304 c0 -3 16 -42 35 -85 27 -62 33 -84 25 -99 -14 -26 -13 -40
4 -40 8 0 31 43 57 107 24 59 46 111 47 115 2 4 -5 8 -16 8 -16 0 -24 -12 -37
-52 -10 -29 -21 -57 -25 -61 -4 -4 -19 19 -33 53 -16 36 -33 60 -42 60 -8 0
-15 -3 -15 -6z"/>
<path d="M1200 230 c0 -64 3 -80 15 -80 12 0 15 16 15 80 0 64 -3 80 -15 80
-12 0 -15 -16 -15 -80z"/>
<path d="M1297 303 c-4 -3 -7 -39 -7 -80 0 -66 2 -73 20 -73 16 0 19 8 22 63
3 62 3 62 33 62 30 0 30 0 33 -62 2 -47 7 -63 17 -63 19 0 21 130 3 148 -15
15 -61 15 -76 0 -9 -9 -12 -9 -12 0 0 13 -22 16 -33 5z"/>
</g>
</svg>
